<svg xmlns="http://www.w3.org/2000/svg" width="49.493" height="33.999" viewBox="0 0 49.493 33.999"><path d="M39.105,16.168A10.531,10.531,0,0,0,33.16,18C36.85,7.589,45.131,6.366,45.56,6.312l-.369-2.976c-.153.018-15.376,2.112-16.687,23.171l.045,0c0,.081-.024.162-.024.243A10.582,10.582,0,1,0,39.105,16.168Zm0,18.168a7.583,7.583,0,1,1,7.583-7.583A7.589,7.589,0,0,1,39.105,34.336ZM10.8,16.168A10.522,10.522,0,0,0,4.859,18C8.549,7.589,16.828,6.366,17.257,6.312l-.369-2.976C16.735,3.354,1.515,5.448.2,26.507l.045,0c0,.081-.024.162-.024.243A10.582,10.582,0,1,0,10.8,16.168Zm0,18.168a7.583,7.583,0,1,1,7.583-7.583A7.589,7.589,0,0,1,10.8,34.336Z" transform="translate(-0.198 -3.336)"/></svg>