<svg xmlns="http://www.w3.org/2000/svg" width="49.493" height="34" viewBox="0 0 49.493 34"><path d="M10.784,16.168A10.531,10.531,0,0,1,16.729,18C13.039,7.589,4.757,6.366,4.328,6.312L4.7,3.336c.153.018,15.376,2.112,16.687,23.171l-.045,0c0,.081.024.162.024.243a10.583,10.583,0,1,1-10.58-10.585Zm0,18.168A7.583,7.583,0,1,0,3.2,26.753,7.589,7.589,0,0,0,10.784,34.336Zm28.3-18.168A10.522,10.522,0,0,1,45.03,18C41.34,7.589,33.062,6.366,32.633,6.312L33,3.336c.153.018,15.373,2.112,16.69,23.171l-.045,0c0,.081.024.162.024.243A10.583,10.583,0,1,1,39.088,16.168Zm0,18.168A7.583,7.583,0,1,0,31.5,26.753,7.589,7.589,0,0,0,39.088,34.336Z" transform="translate(-0.198 -3.336)"/></svg>